# xmcd
#
# Track frame offsets:
#	150
#	9171
#	20129
#	42149
#	55830
#	77272
#	89209
#	99821
#	110700
#	118499
#	132254
#	143284
#	158154
#	165178
#	171211
#
# Disc length: 2351 seconds
#
# Revision: 0
# Processed by: cddbd v1.5.2PL0 Copyright (c) Steve Scherf et al.
# Submitted via: EasyCDDAExtractor 16.0.6.1
#
DISCID=b3092d0f
DTITLE=Κόλλιας Άλκης - Μπολιβάρ, ισπ.-Ν. Μαμαγκάκης
DYEAR=2007
DGENRE=Ξένη ισπανική
TTITLE0=Κόλλιας Άλκης - Prologo
TTITLE1=Κόλλιας Άλκης - Bolivar grito tu nombre
TTITLE2=Άνευ ερμηνευτού - Elegia para flauta
TTITLE3=Κόλλιας Άλκης - Si en las islas de coral
TTITLE4=Άνευ ερμηνευτού - Elegia para violonchelo
TTITLE5=Κόλλιας Άλκης - Si la noche tardia en sus pasos
TTITLE6=Κόλλιας Άλκης - Intermedio
TTITLE7=Κόλλιας Άλκης - Cuando hablas, aterradores sismos
TTITLE8=Άνευ ερμηνευτού - Ennea ogdoa
TTITLE9=Άνευ ερμηνευτού - Elegia para guitarra
TTITLE10=Κόλλιας Άλκης-χορωδία - Corazon
TTITLE11=Άνευ ερμηνευτού - Elegia para laud
TTITLE12=Κόλλιας Άλκης - Libertad
TTITLE13=Άνευ ερμηνευτού - Bolivar mars
TTITLE14=Κόλλιας Άλκης - Epilogo
EXTD=
EXTT0=
EXTT1=
EXTT2=
EXTT3=
EXTT4=
EXTT5=
EXTT6=
EXTT7=
EXTT8=
EXTT9=
EXTT10=
EXTT11=
EXTT12=
EXTT13=
EXTT14=
PLAYORDER=
